<mxfile host="app.diagrams.net" agent="Mozilla/5.0 (X11; Ubuntu; Linux x86_64; rv:132.0) Gecko/20100101 Firefox/132.0" version="24.8.4">
  <diagram name="Page-1" id="-4svNbfz8fIVIJqnamal">
    <mxGraphModel dx="2804" dy="2400" grid="0" gridSize="10" guides="1" tooltips="1" connect="1" arrows="1" fold="1" page="1" pageScale="1" pageWidth="850" pageHeight="1100" math="0" shadow="0">
      <root>
        <mxCell id="0" />
        <mxCell id="1" parent="0" />
        <mxCell id="tS55dIg7JT-rPnmBcg7p-69" value="" style="edgeStyle=orthogonalEdgeStyle;rounded=0;orthogonalLoop=1;jettySize=auto;html=1;strokeColor=#223E71;fontColor=#4782F0;strokeWidth=4;labelBackgroundColor=none;" edge="1" parent="1" source="tS55dIg7JT-rPnmBcg7p-16" target="tS55dIg7JT-rPnmBcg7p-66">
          <mxGeometry relative="1" as="geometry" />
        </mxCell>
        <mxCell id="tS55dIg7JT-rPnmBcg7p-16" value="&lt;font style=&quot;font-size: 18px;&quot;&gt;Topic&lt;/font&gt;" style="swimlane;fontStyle=0;childLayout=stackLayout;horizontal=1;startSize=30;horizontalStack=0;resizeParent=1;resizeParentMax=0;resizeLast=0;collapsible=1;marginBottom=0;whiteSpace=wrap;html=1;align=center;strokeColor=#4782F0;fontColor=#4782F0;fillColor=none;strokeWidth=4;labelBackgroundColor=none;" vertex="1" parent="1">
          <mxGeometry x="150" y="-390" width="160" height="210" as="geometry" />
        </mxCell>
        <mxCell id="tS55dIg7JT-rPnmBcg7p-17" value="&lt;font style=&quot;font-size: 18px;&quot;&gt;Event 1&lt;/font&gt;" style="text;strokeColor=#4782F0;fillColor=none;align=center;verticalAlign=middle;spacingLeft=4;spacingRight=4;overflow=hidden;points=[[0,0.5],[1,0.5]];portConstraint=eastwest;rotatable=0;whiteSpace=wrap;html=1;fontColor=#4782F0;strokeWidth=4;labelBackgroundColor=none;" vertex="1" parent="tS55dIg7JT-rPnmBcg7p-16">
          <mxGeometry y="30" width="160" height="30" as="geometry" />
        </mxCell>
        <mxCell id="tS55dIg7JT-rPnmBcg7p-18" value="&lt;font style=&quot;font-size: 18px;&quot;&gt;Event 2&lt;/font&gt;" style="text;strokeColor=#4782F0;fillColor=none;align=center;verticalAlign=middle;spacingLeft=4;spacingRight=4;overflow=hidden;points=[[0,0.5],[1,0.5]];portConstraint=eastwest;rotatable=0;whiteSpace=wrap;html=1;fontColor=#4782F0;strokeWidth=4;labelBackgroundColor=none;" vertex="1" parent="tS55dIg7JT-rPnmBcg7p-16">
          <mxGeometry y="60" width="160" height="30" as="geometry" />
        </mxCell>
        <mxCell id="tS55dIg7JT-rPnmBcg7p-19" value="&lt;font style=&quot;font-size: 18px;&quot;&gt;Event 3&lt;/font&gt;" style="text;strokeColor=#4782F0;fillColor=none;align=center;verticalAlign=middle;spacingLeft=4;spacingRight=4;overflow=hidden;points=[[0,0.5],[1,0.5]];portConstraint=eastwest;rotatable=0;whiteSpace=wrap;html=1;fontColor=#4782F0;labelBackgroundColor=none;" vertex="1" parent="tS55dIg7JT-rPnmBcg7p-16">
          <mxGeometry y="90" width="160" height="30" as="geometry" />
        </mxCell>
        <mxCell id="tS55dIg7JT-rPnmBcg7p-20" value="&lt;font style=&quot;font-size: 18px;&quot;&gt;Event 4&lt;/font&gt;" style="text;strokeColor=#4782F0;fillColor=none;align=center;verticalAlign=middle;spacingLeft=4;spacingRight=4;overflow=hidden;points=[[0,0.5],[1,0.5]];portConstraint=eastwest;rotatable=0;whiteSpace=wrap;html=1;fontColor=#4782F0;strokeWidth=4;labelBackgroundColor=none;" vertex="1" parent="tS55dIg7JT-rPnmBcg7p-16">
          <mxGeometry y="120" width="160" height="30" as="geometry" />
        </mxCell>
        <mxCell id="tS55dIg7JT-rPnmBcg7p-21" value="&lt;font style=&quot;font-size: 18px;&quot;&gt;Event 5&lt;/font&gt;" style="text;strokeColor=#4782F0;fillColor=none;align=center;verticalAlign=middle;spacingLeft=4;spacingRight=4;overflow=hidden;points=[[0,0.5],[1,0.5]];portConstraint=eastwest;rotatable=0;whiteSpace=wrap;html=1;fontColor=#4782F0;strokeWidth=4;labelBackgroundColor=none;" vertex="1" parent="tS55dIg7JT-rPnmBcg7p-16">
          <mxGeometry y="150" width="160" height="30" as="geometry" />
        </mxCell>
        <mxCell id="tS55dIg7JT-rPnmBcg7p-22" value="&lt;font style=&quot;font-size: 18px;&quot;&gt;Event 6&lt;/font&gt;" style="text;strokeColor=#4782F0;fillColor=none;align=center;verticalAlign=middle;spacingLeft=4;spacingRight=4;overflow=hidden;points=[[0,0.5],[1,0.5]];portConstraint=eastwest;rotatable=0;whiteSpace=wrap;html=1;fontColor=#4782F0;labelBackgroundColor=none;" vertex="1" parent="tS55dIg7JT-rPnmBcg7p-16">
          <mxGeometry y="180" width="160" height="30" as="geometry" />
        </mxCell>
        <mxCell id="tS55dIg7JT-rPnmBcg7p-23" value="Transactional DB" style="shape=table;startSize=30;container=1;collapsible=0;childLayout=tableLayout;strokeColor=#4782F0;fontSize=16;fontColor=#4782F0;fillColor=none;strokeWidth=4;labelBackgroundColor=none;" vertex="1" parent="1">
          <mxGeometry x="-41" y="93" width="250" height="200" as="geometry" />
        </mxCell>
        <mxCell id="tS55dIg7JT-rPnmBcg7p-24" value="" style="shape=tableRow;horizontal=0;startSize=0;swimlaneHead=0;swimlaneBody=0;strokeColor=inherit;top=0;left=0;bottom=0;right=0;collapsible=0;dropTarget=0;fillColor=none;points=[[0,0.5],[1,0.5]];portConstraint=eastwest;fontSize=16;fontColor=#4782F0;labelBackgroundColor=none;" vertex="1" parent="tS55dIg7JT-rPnmBcg7p-23">
          <mxGeometry y="30" width="250" height="28" as="geometry" />
        </mxCell>
        <mxCell id="tS55dIg7JT-rPnmBcg7p-25" value="1" style="shape=partialRectangle;html=1;whiteSpace=wrap;connectable=0;strokeColor=inherit;overflow=hidden;fillColor=none;top=0;left=0;bottom=0;right=0;pointerEvents=1;fontSize=16;fontColor=#4782F0;labelBackgroundColor=none;" vertex="1" parent="tS55dIg7JT-rPnmBcg7p-24">
          <mxGeometry width="84" height="28" as="geometry">
            <mxRectangle width="84" height="28" as="alternateBounds" />
          </mxGeometry>
        </mxCell>
        <mxCell id="tS55dIg7JT-rPnmBcg7p-26" value="..." style="shape=partialRectangle;html=1;whiteSpace=wrap;connectable=0;strokeColor=inherit;overflow=hidden;fillColor=none;top=0;left=0;bottom=0;right=0;pointerEvents=1;fontSize=16;fontColor=#4782F0;labelBackgroundColor=none;" vertex="1" parent="tS55dIg7JT-rPnmBcg7p-24">
          <mxGeometry x="84" width="82" height="28" as="geometry">
            <mxRectangle width="82" height="28" as="alternateBounds" />
          </mxGeometry>
        </mxCell>
        <mxCell id="tS55dIg7JT-rPnmBcg7p-27" value="..." style="shape=partialRectangle;html=1;whiteSpace=wrap;connectable=0;strokeColor=inherit;overflow=hidden;fillColor=none;top=0;left=0;bottom=0;right=0;pointerEvents=1;fontSize=16;fontColor=#4782F0;labelBackgroundColor=none;" vertex="1" parent="tS55dIg7JT-rPnmBcg7p-24">
          <mxGeometry x="166" width="84" height="28" as="geometry">
            <mxRectangle width="84" height="28" as="alternateBounds" />
          </mxGeometry>
        </mxCell>
        <mxCell id="tS55dIg7JT-rPnmBcg7p-28" value="" style="shape=tableRow;horizontal=0;startSize=0;swimlaneHead=0;swimlaneBody=0;strokeColor=inherit;top=0;left=0;bottom=0;right=0;collapsible=0;dropTarget=0;fillColor=none;points=[[0,0.5],[1,0.5]];portConstraint=eastwest;fontSize=16;fontColor=#4782F0;labelBackgroundColor=none;" vertex="1" parent="tS55dIg7JT-rPnmBcg7p-23">
          <mxGeometry y="58" width="250" height="29" as="geometry" />
        </mxCell>
        <mxCell id="tS55dIg7JT-rPnmBcg7p-29" value="2" style="shape=partialRectangle;html=1;whiteSpace=wrap;connectable=0;strokeColor=inherit;overflow=hidden;fillColor=none;top=0;left=0;bottom=0;right=0;pointerEvents=1;fontSize=16;fontColor=#4782F0;labelBackgroundColor=none;" vertex="1" parent="tS55dIg7JT-rPnmBcg7p-28">
          <mxGeometry width="84" height="29" as="geometry">
            <mxRectangle width="84" height="29" as="alternateBounds" />
          </mxGeometry>
        </mxCell>
        <mxCell id="tS55dIg7JT-rPnmBcg7p-30" value="..." style="shape=partialRectangle;html=1;whiteSpace=wrap;connectable=0;strokeColor=inherit;overflow=hidden;fillColor=none;top=0;left=0;bottom=0;right=0;pointerEvents=1;fontSize=16;fontColor=#4782F0;labelBackgroundColor=none;" vertex="1" parent="tS55dIg7JT-rPnmBcg7p-28">
          <mxGeometry x="84" width="82" height="29" as="geometry">
            <mxRectangle width="82" height="29" as="alternateBounds" />
          </mxGeometry>
        </mxCell>
        <mxCell id="tS55dIg7JT-rPnmBcg7p-31" value="..." style="shape=partialRectangle;html=1;whiteSpace=wrap;connectable=0;strokeColor=inherit;overflow=hidden;fillColor=none;top=0;left=0;bottom=0;right=0;pointerEvents=1;fontSize=16;fontColor=#4782F0;labelBackgroundColor=none;" vertex="1" parent="tS55dIg7JT-rPnmBcg7p-28">
          <mxGeometry x="166" width="84" height="29" as="geometry">
            <mxRectangle width="84" height="29" as="alternateBounds" />
          </mxGeometry>
        </mxCell>
        <mxCell id="tS55dIg7JT-rPnmBcg7p-32" value="" style="shape=tableRow;horizontal=0;startSize=0;swimlaneHead=0;swimlaneBody=0;strokeColor=inherit;top=0;left=0;bottom=0;right=0;collapsible=0;dropTarget=0;fillColor=none;points=[[0,0.5],[1,0.5]];portConstraint=eastwest;fontSize=16;fontColor=#4782F0;labelBackgroundColor=none;" vertex="1" parent="tS55dIg7JT-rPnmBcg7p-23">
          <mxGeometry y="87" width="250" height="28" as="geometry" />
        </mxCell>
        <mxCell id="tS55dIg7JT-rPnmBcg7p-33" value="3" style="shape=partialRectangle;html=1;whiteSpace=wrap;connectable=0;strokeColor=inherit;overflow=hidden;fillColor=none;top=0;left=0;bottom=0;right=0;pointerEvents=1;fontSize=16;fontColor=#4782F0;labelBackgroundColor=none;" vertex="1" parent="tS55dIg7JT-rPnmBcg7p-32">
          <mxGeometry width="84" height="28" as="geometry">
            <mxRectangle width="84" height="28" as="alternateBounds" />
          </mxGeometry>
        </mxCell>
        <mxCell id="tS55dIg7JT-rPnmBcg7p-34" value="..." style="shape=partialRectangle;html=1;whiteSpace=wrap;connectable=0;strokeColor=inherit;overflow=hidden;fillColor=none;top=0;left=0;bottom=0;right=0;pointerEvents=1;fontSize=16;fontColor=#4782F0;labelBackgroundColor=none;" vertex="1" parent="tS55dIg7JT-rPnmBcg7p-32">
          <mxGeometry x="84" width="82" height="28" as="geometry">
            <mxRectangle width="82" height="28" as="alternateBounds" />
          </mxGeometry>
        </mxCell>
        <mxCell id="tS55dIg7JT-rPnmBcg7p-35" value="..." style="shape=partialRectangle;html=1;whiteSpace=wrap;connectable=0;strokeColor=inherit;overflow=hidden;fillColor=none;top=0;left=0;bottom=0;right=0;pointerEvents=1;fontSize=16;fontColor=#4782F0;labelBackgroundColor=none;" vertex="1" parent="tS55dIg7JT-rPnmBcg7p-32">
          <mxGeometry x="166" width="84" height="28" as="geometry">
            <mxRectangle width="84" height="28" as="alternateBounds" />
          </mxGeometry>
        </mxCell>
        <mxCell id="tS55dIg7JT-rPnmBcg7p-36" style="shape=tableRow;horizontal=0;startSize=0;swimlaneHead=0;swimlaneBody=0;strokeColor=inherit;top=0;left=0;bottom=0;right=0;collapsible=0;dropTarget=0;fillColor=none;points=[[0,0.5],[1,0.5]];portConstraint=eastwest;fontSize=16;fontColor=#4782F0;labelBackgroundColor=none;" vertex="1" parent="tS55dIg7JT-rPnmBcg7p-23">
          <mxGeometry y="115" width="250" height="28" as="geometry" />
        </mxCell>
        <mxCell id="tS55dIg7JT-rPnmBcg7p-37" value="4" style="shape=partialRectangle;html=1;whiteSpace=wrap;connectable=0;strokeColor=inherit;overflow=hidden;fillColor=none;top=0;left=0;bottom=0;right=0;pointerEvents=1;fontSize=16;fontColor=#4782F0;labelBackgroundColor=none;" vertex="1" parent="tS55dIg7JT-rPnmBcg7p-36">
          <mxGeometry width="84" height="28" as="geometry">
            <mxRectangle width="84" height="28" as="alternateBounds" />
          </mxGeometry>
        </mxCell>
        <mxCell id="tS55dIg7JT-rPnmBcg7p-38" value="..." style="shape=partialRectangle;html=1;whiteSpace=wrap;connectable=0;strokeColor=inherit;overflow=hidden;fillColor=none;top=0;left=0;bottom=0;right=0;pointerEvents=1;fontSize=16;fontColor=#4782F0;labelBackgroundColor=none;" vertex="1" parent="tS55dIg7JT-rPnmBcg7p-36">
          <mxGeometry x="84" width="82" height="28" as="geometry">
            <mxRectangle width="82" height="28" as="alternateBounds" />
          </mxGeometry>
        </mxCell>
        <mxCell id="tS55dIg7JT-rPnmBcg7p-39" value="..." style="shape=partialRectangle;html=1;whiteSpace=wrap;connectable=0;strokeColor=inherit;overflow=hidden;fillColor=none;top=0;left=0;bottom=0;right=0;pointerEvents=1;fontSize=16;fontColor=#4782F0;labelBackgroundColor=none;" vertex="1" parent="tS55dIg7JT-rPnmBcg7p-36">
          <mxGeometry x="166" width="84" height="28" as="geometry">
            <mxRectangle width="84" height="28" as="alternateBounds" />
          </mxGeometry>
        </mxCell>
        <mxCell id="tS55dIg7JT-rPnmBcg7p-40" style="shape=tableRow;horizontal=0;startSize=0;swimlaneHead=0;swimlaneBody=0;strokeColor=inherit;top=0;left=0;bottom=0;right=0;collapsible=0;dropTarget=0;fillColor=none;points=[[0,0.5],[1,0.5]];portConstraint=eastwest;fontSize=16;fontColor=#4782F0;labelBackgroundColor=none;" vertex="1" parent="tS55dIg7JT-rPnmBcg7p-23">
          <mxGeometry y="143" width="250" height="29" as="geometry" />
        </mxCell>
        <mxCell id="tS55dIg7JT-rPnmBcg7p-41" value="5" style="shape=partialRectangle;html=1;whiteSpace=wrap;connectable=0;strokeColor=inherit;overflow=hidden;fillColor=none;top=0;left=0;bottom=0;right=0;pointerEvents=1;fontSize=16;fontColor=#4782F0;labelBackgroundColor=none;" vertex="1" parent="tS55dIg7JT-rPnmBcg7p-40">
          <mxGeometry width="84" height="29" as="geometry">
            <mxRectangle width="84" height="29" as="alternateBounds" />
          </mxGeometry>
        </mxCell>
        <mxCell id="tS55dIg7JT-rPnmBcg7p-42" value="..." style="shape=partialRectangle;html=1;whiteSpace=wrap;connectable=0;strokeColor=inherit;overflow=hidden;fillColor=none;top=0;left=0;bottom=0;right=0;pointerEvents=1;fontSize=16;fontColor=#4782F0;labelBackgroundColor=none;" vertex="1" parent="tS55dIg7JT-rPnmBcg7p-40">
          <mxGeometry x="84" width="82" height="29" as="geometry">
            <mxRectangle width="82" height="29" as="alternateBounds" />
          </mxGeometry>
        </mxCell>
        <mxCell id="tS55dIg7JT-rPnmBcg7p-43" value="..." style="shape=partialRectangle;html=1;whiteSpace=wrap;connectable=0;strokeColor=inherit;overflow=hidden;fillColor=none;top=0;left=0;bottom=0;right=0;pointerEvents=1;fontSize=16;fontColor=#4782F0;labelBackgroundColor=none;" vertex="1" parent="tS55dIg7JT-rPnmBcg7p-40">
          <mxGeometry x="166" width="84" height="29" as="geometry">
            <mxRectangle width="84" height="29" as="alternateBounds" />
          </mxGeometry>
        </mxCell>
        <mxCell id="tS55dIg7JT-rPnmBcg7p-44" style="shape=tableRow;horizontal=0;startSize=0;swimlaneHead=0;swimlaneBody=0;strokeColor=inherit;top=0;left=0;bottom=0;right=0;collapsible=0;dropTarget=0;fillColor=none;points=[[0,0.5],[1,0.5]];portConstraint=eastwest;fontSize=16;fontColor=#4782F0;labelBackgroundColor=none;" vertex="1" parent="tS55dIg7JT-rPnmBcg7p-23">
          <mxGeometry y="172" width="250" height="28" as="geometry" />
        </mxCell>
        <mxCell id="tS55dIg7JT-rPnmBcg7p-45" value="6" style="shape=partialRectangle;html=1;whiteSpace=wrap;connectable=0;strokeColor=inherit;overflow=hidden;fillColor=none;top=0;left=0;bottom=0;right=0;pointerEvents=1;fontSize=16;fontColor=#4782F0;labelBackgroundColor=none;" vertex="1" parent="tS55dIg7JT-rPnmBcg7p-44">
          <mxGeometry width="84" height="28" as="geometry">
            <mxRectangle width="84" height="28" as="alternateBounds" />
          </mxGeometry>
        </mxCell>
        <mxCell id="tS55dIg7JT-rPnmBcg7p-46" value="..." style="shape=partialRectangle;html=1;whiteSpace=wrap;connectable=0;strokeColor=inherit;overflow=hidden;fillColor=none;top=0;left=0;bottom=0;right=0;pointerEvents=1;fontSize=16;fontColor=#4782F0;labelBackgroundColor=none;" vertex="1" parent="tS55dIg7JT-rPnmBcg7p-44">
          <mxGeometry x="84" width="82" height="28" as="geometry">
            <mxRectangle width="82" height="28" as="alternateBounds" />
          </mxGeometry>
        </mxCell>
        <mxCell id="tS55dIg7JT-rPnmBcg7p-47" value="..." style="shape=partialRectangle;html=1;whiteSpace=wrap;connectable=0;strokeColor=inherit;overflow=hidden;fillColor=none;top=0;left=0;bottom=0;right=0;pointerEvents=1;fontSize=16;fontColor=#4782F0;labelBackgroundColor=none;" vertex="1" parent="tS55dIg7JT-rPnmBcg7p-44">
          <mxGeometry x="166" width="84" height="28" as="geometry">
            <mxRectangle width="84" height="28" as="alternateBounds" />
          </mxGeometry>
        </mxCell>
        <mxCell id="tS55dIg7JT-rPnmBcg7p-63" value="" style="endArrow=classic;html=1;rounded=0;entryX=0.5;entryY=0;entryDx=0;entryDy=0;exitX=1;exitY=0.5;exitDx=0;exitDy=0;fontColor=#4782F0;strokeColor=#4782F0;strokeWidth=4;labelBackgroundColor=none;" edge="1" parent="1" source="tS55dIg7JT-rPnmBcg7p-66" target="tS55dIg7JT-rPnmBcg7p-23">
          <mxGeometry width="50" height="50" relative="1" as="geometry">
            <mxPoint x="120" y="200" as="sourcePoint" />
            <mxPoint x="260" y="150" as="targetPoint" />
          </mxGeometry>
        </mxCell>
        <mxCell id="tS55dIg7JT-rPnmBcg7p-64" value="" style="endArrow=classic;html=1;rounded=0;exitX=1;exitY=0.5;exitDx=0;exitDy=0;entryX=0.326;entryY=0.118;entryDx=0;entryDy=0;fontColor=#4782F0;strokeColor=#4782F0;entryPerimeter=0;strokeWidth=4;labelBackgroundColor=none;" edge="1" parent="1" source="tS55dIg7JT-rPnmBcg7p-66" target="tS55dIg7JT-rPnmBcg7p-50">
          <mxGeometry width="50" height="50" relative="1" as="geometry">
            <mxPoint x="120" y="200" as="sourcePoint" />
            <mxPoint x="440" y="190" as="targetPoint" />
          </mxGeometry>
        </mxCell>
        <mxCell id="tS55dIg7JT-rPnmBcg7p-65" value="" style="endArrow=classic;html=1;rounded=0;exitX=1;exitY=0.5;exitDx=0;exitDy=0;fontColor=#4782F0;strokeColor=#4782F0;strokeWidth=4;labelBackgroundColor=none;" edge="1" parent="1" source="tS55dIg7JT-rPnmBcg7p-66">
          <mxGeometry width="50" height="50" relative="1" as="geometry">
            <mxPoint x="260" y="190" as="sourcePoint" />
            <mxPoint x="243" y="329" as="targetPoint" />
          </mxGeometry>
        </mxCell>
        <mxCell id="tS55dIg7JT-rPnmBcg7p-66" value="" style="triangle;whiteSpace=wrap;html=1;align=center;direction=south;strokeColor=#4782F0;fontColor=#4782F0;fillColor=none;strokeWidth=4;labelBackgroundColor=none;" vertex="1" parent="1">
          <mxGeometry x="140" y="-130" width="180" height="140" as="geometry" />
        </mxCell>
        <mxCell id="tS55dIg7JT-rPnmBcg7p-49" value="&lt;font style=&quot;font-size: 18px;&quot;&gt;e1&lt;/font&gt;" style="ellipse;whiteSpace=wrap;html=1;aspect=fixed;fillColor=none;strokeColor=#4782F0;fontColor=#4782F0;strokeWidth=4;labelBackgroundColor=none;" vertex="1" parent="1">
          <mxGeometry x="263" y="72.97999999999999" width="56.923732183803274" height="56.923732183803274" as="geometry" />
        </mxCell>
        <mxCell id="tS55dIg7JT-rPnmBcg7p-50" value="&lt;font style=&quot;font-size: 18px;&quot;&gt;e2&lt;/font&gt;" style="ellipse;whiteSpace=wrap;html=1;aspect=fixed;fillColor=none;strokeColor=#4782F0;fontColor=#4782F0;strokeWidth=4;labelBackgroundColor=none;" vertex="1" parent="1">
          <mxGeometry x="358.99638926433676" y="85.97966071056334" width="56.923732183803274" height="56.923732183803274" as="geometry" />
        </mxCell>
        <mxCell id="tS55dIg7JT-rPnmBcg7p-51" value="e3" style="ellipse;whiteSpace=wrap;html=1;aspect=fixed;fillColor=none;strokeColor=#4782F0;fontColor=#4782F0;strokeWidth=4;labelBackgroundColor=none;" vertex="1" parent="1">
          <mxGeometry x="263" y="222.81694639507006" width="56.923732183803274" height="56.923732183803274" as="geometry" />
        </mxCell>
        <mxCell id="tS55dIg7JT-rPnmBcg7p-52" value="&lt;font style=&quot;font-size: 18px;&quot;&gt;e4&lt;/font&gt;" style="ellipse;whiteSpace=wrap;html=1;aspect=fixed;fillColor=none;strokeColor=#4782F0;fontColor=#4782F0;strokeWidth=4;labelBackgroundColor=none;" vertex="1" parent="1">
          <mxGeometry x="358.99638926433676" y="174.9776249739434" width="56.923732183803274" height="56.923732183803274" as="geometry" />
        </mxCell>
        <mxCell id="tS55dIg7JT-rPnmBcg7p-53" value="&lt;font style=&quot;font-size: 18px;&quot;&gt;e5&lt;/font&gt;" style="ellipse;whiteSpace=wrap;html=1;aspect=fixed;fillColor=none;strokeColor=#4782F0;fontColor=#4782F0;strokeWidth=4;labelBackgroundColor=none;" vertex="1" parent="1">
          <mxGeometry x="447.9976076462639" y="153.97728568450677" width="56.923732183803274" height="56.923732183803274" as="geometry" />
        </mxCell>
        <mxCell id="tS55dIg7JT-rPnmBcg7p-54" value="e6" style="ellipse;whiteSpace=wrap;html=1;aspect=fixed;fillColor=none;strokeColor=#4782F0;fontColor=#4782F0;strokeWidth=4;labelBackgroundColor=none;" vertex="1" parent="1">
          <mxGeometry x="432.7972581579455" y="256.0962678161967" width="56.923732183803274" height="56.923732183803274" as="geometry" />
        </mxCell>
        <mxCell id="tS55dIg7JT-rPnmBcg7p-55" value="" style="endArrow=classic;html=1;rounded=0;exitX=1;exitY=0.5;exitDx=0;exitDy=0;entryX=0;entryY=1;entryDx=0;entryDy=0;fontColor=#4782F0;strokeColor=#4782F0;strokeWidth=4;labelBackgroundColor=none;" edge="1" parent="1" source="tS55dIg7JT-rPnmBcg7p-51" target="tS55dIg7JT-rPnmBcg7p-52">
          <mxGeometry width="50" height="50" relative="1" as="geometry">
            <mxPoint x="-299.00038617493726" y="182.25762497394336" as="sourcePoint" />
            <mxPoint x="-194.9262405869859" y="80.85932142112668" as="targetPoint" />
          </mxGeometry>
        </mxCell>
        <mxCell id="tS55dIg7JT-rPnmBcg7p-56" value="" style="endArrow=classic;html=1;rounded=0;exitX=1;exitY=0.5;exitDx=0;exitDy=0;entryX=0;entryY=0.5;entryDx=0;entryDy=0;fontColor=#4782F0;strokeColor=#4782F0;strokeWidth=4;labelBackgroundColor=none;" edge="1" parent="1" source="tS55dIg7JT-rPnmBcg7p-49" target="tS55dIg7JT-rPnmBcg7p-50">
          <mxGeometry width="50" height="50" relative="1" as="geometry">
            <mxPoint x="325.4444873527708" y="285.91643746091506" as="sourcePoint" />
            <mxPoint x="419.111218381927" y="285.91643746091506" as="targetPoint" />
          </mxGeometry>
        </mxCell>
        <mxCell id="tS55dIg7JT-rPnmBcg7p-57" value="" style="endArrow=classic;html=1;rounded=0;exitX=0.5;exitY=1;exitDx=0;exitDy=0;entryX=0.5;entryY=0;entryDx=0;entryDy=0;fontColor=#4782F0;strokeColor=#4782F0;strokeWidth=4;labelBackgroundColor=none;" edge="1" parent="1" source="tS55dIg7JT-rPnmBcg7p-50" target="tS55dIg7JT-rPnmBcg7p-52">
          <mxGeometry width="50" height="50" relative="1" as="geometry">
            <mxPoint x="311.1222822938791" y="110.31525356323934" as="sourcePoint" />
            <mxPoint x="379.811218381927" y="116.39915177640836" as="targetPoint" />
          </mxGeometry>
        </mxCell>
        <mxCell id="tS55dIg7JT-rPnmBcg7p-58" value="" style="endArrow=classic;html=1;rounded=0;exitX=1;exitY=1;exitDx=0;exitDy=0;entryX=0.102;entryY=0.275;entryDx=0;entryDy=0;entryPerimeter=0;fontColor=#4782F0;strokeColor=#4782F0;strokeWidth=4;labelBackgroundColor=none;" edge="1" parent="1" source="tS55dIg7JT-rPnmBcg7p-52" target="tS55dIg7JT-rPnmBcg7p-54">
          <mxGeometry width="50" height="50" relative="1" as="geometry">
            <mxPoint x="411.0334620583124" y="114.1386428422534" as="sourcePoint" />
            <mxPoint x="430.73503572118165" y="271.1843353848557" as="targetPoint" />
          </mxGeometry>
        </mxCell>
        <mxCell id="tS55dIg7JT-rPnmBcg7p-59" value="" style="endArrow=classic;html=1;rounded=0;exitX=0.5;exitY=1;exitDx=0;exitDy=0;entryX=0.5;entryY=0;entryDx=0;entryDy=0;fontColor=#4782F0;strokeColor=#4782F0;strokeWidth=4;labelBackgroundColor=none;" edge="1" parent="1" source="tS55dIg7JT-rPnmBcg7p-53" target="tS55dIg7JT-rPnmBcg7p-54">
          <mxGeometry width="50" height="50" relative="1" as="geometry">
            <mxPoint x="392.30011585248116" y="288.54372495309815" as="sourcePoint" />
            <mxPoint x="497.1311643174358" y="264.9286565162562" as="targetPoint" />
          </mxGeometry>
        </mxCell>
        <mxCell id="tS55dIg7JT-rPnmBcg7p-74" value="&lt;p style=&quot;line-height: 100%;&quot;&gt;&lt;/p&gt;&lt;div align=&quot;center&quot; style=&quot;font-size: 16px;&quot;&gt;&lt;font style=&quot;font-size: 18px;&quot;&gt;&amp;nbsp;Consumer&lt;/font&gt;&lt;/div&gt;" style="text;html=1;align=center;verticalAlign=middle;resizable=0;points=[];autosize=1;strokeColor=none;fillColor=none;fontColor=#4782F0;labelBackgroundColor=none;" vertex="1" parent="1">
          <mxGeometry x="174" y="-120" width="106" height="46" as="geometry" />
        </mxCell>
        <mxCell id="tS55dIg7JT-rPnmBcg7p-1" value="" style="rhombus;whiteSpace=wrap;html=1;fillColor=none;strokeColor=#4782F0;fontColor=#4782F0;strokeWidth=4;labelBackgroundColor=none;" vertex="1" parent="1">
          <mxGeometry x="20" y="480.6666666666667" width="440" height="73.33333333333334" as="geometry" />
        </mxCell>
        <mxCell id="tS55dIg7JT-rPnmBcg7p-2" value="" style="endArrow=none;dashed=1;html=1;dashPattern=1 3;strokeWidth=2;rounded=0;entryX=0.5;entryY=0;entryDx=0;entryDy=0;fontColor=#4782F0;strokeColor=#4782F0;labelBackgroundColor=none;" edge="1" parent="1" target="tS55dIg7JT-rPnmBcg7p-1">
          <mxGeometry width="50" height="50" relative="1" as="geometry">
            <mxPoint x="240" y="334" as="sourcePoint" />
            <mxPoint x="-156" y="529.5555555555555" as="targetPoint" />
          </mxGeometry>
        </mxCell>
        <mxCell id="tS55dIg7JT-rPnmBcg7p-3" value="" style="endArrow=none;dashed=1;html=1;dashPattern=1 3;strokeWidth=4;rounded=0;fontColor=#4782F0;strokeColor=#4782F0;labelBackgroundColor=none;" edge="1" parent="1">
          <mxGeometry width="50" height="50" relative="1" as="geometry">
            <mxPoint x="233.71428571428572" y="334" as="sourcePoint" />
            <mxPoint x="20" y="358.44444444444446" as="targetPoint" />
          </mxGeometry>
        </mxCell>
        <mxCell id="tS55dIg7JT-rPnmBcg7p-4" value="" style="endArrow=none;dashed=1;html=1;dashPattern=1 3;strokeWidth=4;rounded=0;exitX=0;exitY=0.5;exitDx=0;exitDy=0;fontColor=#4782F0;strokeColor=#223E71;labelBackgroundColor=none;" edge="1" parent="1" source="tS55dIg7JT-rPnmBcg7p-1">
          <mxGeometry width="50" height="50" relative="1" as="geometry">
            <mxPoint x="246.28571428571428" y="346.22222222222223" as="sourcePoint" />
            <mxPoint x="20" y="358.44444444444446" as="targetPoint" />
          </mxGeometry>
        </mxCell>
        <mxCell id="tS55dIg7JT-rPnmBcg7p-5" value="" style="endArrow=none;dashed=1;html=1;dashPattern=1 3;strokeWidth=4;rounded=0;fontColor=#4782F0;strokeColor=#4782F0;labelBackgroundColor=none;" edge="1" parent="1">
          <mxGeometry width="50" height="50" relative="1" as="geometry">
            <mxPoint x="460" y="358.44444444444446" as="sourcePoint" />
            <mxPoint x="246.28571428571428" y="334" as="targetPoint" />
          </mxGeometry>
        </mxCell>
        <mxCell id="tS55dIg7JT-rPnmBcg7p-6" value="" style="endArrow=none;dashed=1;html=1;dashPattern=1 3;strokeWidth=4;rounded=0;entryX=1;entryY=0.5;entryDx=0;entryDy=0;fontColor=#4782F0;strokeColor=#4782F0;labelBackgroundColor=none;" edge="1" parent="1" target="tS55dIg7JT-rPnmBcg7p-1">
          <mxGeometry width="50" height="50" relative="1" as="geometry">
            <mxPoint x="460" y="358.44444444444446" as="sourcePoint" />
            <mxPoint x="258.8571428571429" y="346.22222222222223" as="targetPoint" />
          </mxGeometry>
        </mxCell>
        <mxCell id="tS55dIg7JT-rPnmBcg7p-8" value="&lt;p style=&quot;line-height: 40%;&quot;&gt;&lt;/p&gt;&lt;div style=&quot;line-height: 96%; font-size: 11px;&quot;&gt;&lt;font style=&quot;font-size: 6px;&quot;&gt;e4&lt;/font&gt;&lt;/div&gt;&lt;p&gt;&lt;/p&gt;" style="ellipse;whiteSpace=wrap;html=1;aspect=fixed;fillColor=none;strokeColor=#4782F0;fontColor=#4782F0;strokeWidth=4;labelBackgroundColor=none;" vertex="1" parent="1">
          <mxGeometry x="196" y="395.1111111111111" width="12.222222222222223" height="12.222222222222223" as="geometry" />
        </mxCell>
        <mxCell id="tS55dIg7JT-rPnmBcg7p-9" value="&lt;p style=&quot;line-height: 90%;&quot;&gt;&lt;font style=&quot;font-size: 9px;&quot;&gt;e1&lt;/font&gt;&lt;/p&gt;" style="ellipse;whiteSpace=wrap;html=1;aspect=fixed;fillColor=none;strokeColor=#4782F0;fontColor=#4782F0;strokeWidth=4;labelBackgroundColor=none;" vertex="1" parent="1">
          <mxGeometry x="108" y="444" width="24.444444444444446" height="24.444444444444446" as="geometry" />
        </mxCell>
        <mxCell id="tS55dIg7JT-rPnmBcg7p-10" value="&lt;p style=&quot;line-height: 90%;&quot;&gt;e5&lt;/p&gt;" style="ellipse;whiteSpace=wrap;html=1;aspect=fixed;fillColor=none;strokeColor=#4782F0;fontColor=#4782F0;strokeWidth=4;labelBackgroundColor=none;" vertex="1" parent="1">
          <mxGeometry x="284" y="431.77777777777777" width="36.66666666666667" height="36.66666666666667" as="geometry" />
        </mxCell>
        <mxCell id="tS55dIg7JT-rPnmBcg7p-11" value="&lt;p style=&quot;line-height: 60%;&quot;&gt;&lt;font style=&quot;font-size: 5px;&quot;&gt;e2&lt;/font&gt;&lt;/p&gt;" style="ellipse;whiteSpace=wrap;html=1;aspect=fixed;fillColor=none;strokeColor=#4782F0;fontColor=#4782F0;strokeWidth=4;labelBackgroundColor=none;" vertex="1" parent="1">
          <mxGeometry x="359.42857142857144" y="456.22222222222223" width="12.222222222222223" height="12.222222222222223" as="geometry" />
        </mxCell>
        <mxCell id="tS55dIg7JT-rPnmBcg7p-12" value="" style="ellipse;whiteSpace=wrap;html=1;aspect=fixed;fillColor=#e1d5e7;strokeColor=#9673a6;fontColor=#4782F0;labelBackgroundColor=none;" vertex="1" parent="1">
          <mxGeometry x="372" y="468.44444444444446" as="geometry" />
        </mxCell>
        <mxCell id="tS55dIg7JT-rPnmBcg7p-13" value="&lt;p style=&quot;line-height: 110%;&quot;&gt;&lt;font style=&quot;font-size: 6px;&quot;&gt;e6&lt;/font&gt;&lt;/p&gt;" style="ellipse;whiteSpace=wrap;html=1;aspect=fixed;fillColor=none;strokeColor=#4782F0;fontColor=#4782F0;strokeWidth=4;labelBackgroundColor=none;" vertex="1" parent="1">
          <mxGeometry x="284" y="511.22222222222223" width="12.222222222222223" height="12.222222222222223" as="geometry" />
        </mxCell>
        <mxCell id="tS55dIg7JT-rPnmBcg7p-14" value="" style="ellipse;whiteSpace=wrap;html=1;aspect=fixed;fillColor=#e1d5e7;strokeColor=#9673a6;fontColor=#4782F0;labelBackgroundColor=none;" vertex="1" parent="1">
          <mxGeometry x="221.14285714285714" y="492.8888888888889" as="geometry" />
        </mxCell>
        <mxCell id="tS55dIg7JT-rPnmBcg7p-15" value="&lt;p style=&quot;line-height: 77%; font-size: 10px;&quot;&gt;&lt;font style=&quot;font-size: 6px;&quot;&gt;e3&lt;/font&gt;&lt;/p&gt;" style="ellipse;whiteSpace=wrap;html=1;aspect=fixed;fillColor=none;strokeColor=#4782F0;fontColor=#4782F0;strokeWidth=4;labelBackgroundColor=none;" vertex="1" parent="1">
          <mxGeometry x="214.85714285714286" y="480.6666666666667" width="12.222222222222223" height="12.222222222222223" as="geometry" />
        </mxCell>
      </root>
    </mxGraphModel>
  </diagram>
</mxfile>
